<?xml version="1.0" standalone="no"?><!DOCTYPE svg PUBLIC "-//W3C//DTD SVG 1.1//EN" "http://www.w3.org/Graphics/SVG/1.1/DTD/svg11.dtd"><svg t="1744095915968" class="icon" viewBox="0 0 1024 1024" version="1.1" xmlns="http://www.w3.org/2000/svg" p-id="2964" xmlns:xlink="http://www.w3.org/1999/xlink" width="200" height="200"><path d="M942.08 0H81.92C35.84 0 0 35.84 0 81.92v855.04c0 51.2 35.84 87.04 81.92 87.04h855.04c46.08 0 81.92-35.84 81.92-81.92V81.92C1024 35.84 988.16 0 942.08 0zM81.92 71.68h855.04c5.12 0 10.24 5.12 10.24 10.24v184.32H71.68V81.92c0-5.12 5.12-10.24 10.24-10.24z m860.16 880.64H81.92c-5.12 0-10.24-5.12-10.24-10.24V348.16h880.64v593.92c0 5.12-5.12 10.24-10.24 10.24z" fill="#ffffff" p-id="2965"></path><path d="M368.64 762.88c-10.24 0-20.48-5.12-25.6-10.24L230.4 645.12c-10.24-5.12-10.24-15.36-10.24-25.6s5.12-20.48 10.24-25.6L343.04 486.4c15.36-15.36 40.96-15.36 56.32 0s15.36 40.96 0 56.32l-87.04 81.92 87.04 76.8c15.36 15.36 15.36 40.96 0 56.32-10.24 5.12-20.48 5.12-30.72 5.12z m296.96 0c-10.24 0-20.48-5.12-30.72-10.24-15.36-15.36-15.36-40.96 0-56.32l87.04-76.8-87.04-81.92c-15.36-15.36-15.36-40.96 0-56.32s40.96-15.36 56.32 0L803.84 588.8c10.24 5.12 10.24 15.36 10.24 25.6s-5.12 20.48-10.24 25.6L691.2 747.52c-5.12 15.36-15.36 15.36-25.6 15.36z" fill="#ffffff" p-id="2966"></path></svg>