<?xml version="1.0" standalone="no"?><!DOCTYPE svg PUBLIC "-//W3C//DTD SVG 1.1//EN" "http://www.w3.org/Graphics/SVG/1.1/DTD/svg11.dtd"><svg t="1744095717397" class="icon" viewBox="0 0 1024 1024" version="1.1" xmlns="http://www.w3.org/2000/svg" p-id="2184" xmlns:xlink="http://www.w3.org/1999/xlink" width="200" height="200"><path d="M960 512c0 247.039484-200.960516 448-448 448S64 759.039484 64 512 264.960516 64 512 64 960 264.960516 960 512zM127.99999999 512c0 211.74444299 172.255557 384 384.00000001 384.00000001s384-172.255557 384.00000001-384.00000001-172.255557-384-384.00000001-384.00000001S128 300.255557 127.99999999 512z" fill="#ffffff" p-id="2185"></path><path d="M458.367639 329.536783l-160.25545 158.495686c-9.471415 9.34412-11.84012901 23.167639-7.135385 34.784142 0.287273 0.736245 0.99255501 1.312512 1.343475 2.016073 1.47249 2.975944 3.072275 5.951888 5.5356 8.447897 0.032684 0.032684 0.063647 0.032684 0.096331 0.063647 0.032684 0.032684 0.032684 0.063647 0.063647 0.096331l158.911974 159.35922601c12.480043 12.512727 32.735385 12.54369 45.248112 0.06364699 6.271845-6.239161 9.407768-14.46343201 9.407768-22.65674 0-8.160624-3.10323901-16.352211-9.34412001-22.591372l-103.29622399-103.616181 305.056632 0c17.695686 0 31.99914-14.336138 31.99914-32.00086s-14.303454-32.00086-31.99914-32.00086L397.247252 479.99742l106.112189-104.959656c6.335493-6.239161 9.504099-14.496116 9.504099-22.75135101 0-8.12794-3.072275-16.25588-9.247789-22.49676099C491.199355 317.216718 470.944013 317.087703 458.367639 329.536783z" fill="#ffffff" p-id="2186"></path></svg>