<?xml version="1.0" standalone="no"?><!DOCTYPE svg PUBLIC "-//W3C//DTD SVG 1.1//EN" "http://www.w3.org/Graphics/SVG/1.1/DTD/svg11.dtd"><svg t="1744094835743" class="icon" viewBox="0 0 1024 1024" version="1.1" xmlns="http://www.w3.org/2000/svg" p-id="1357" xmlns:xlink="http://www.w3.org/1999/xlink" width="200" height="200"><path d="M537.6 236.8c64 0 121.6-51.2 121.6-121.6 0-32-12.8-64-32-83.2C601.6 12.8 569.6 0 537.6 0c-12.8 0-32 0-44.8 6.4-12.8 6.4-25.6 19.2-38.4 25.6-12.8 12.8-19.2 25.6-25.6 44.8-6.4 12.8-12.8 25.6-12.8 44.8 0 32 12.8 64 32 83.2 25.6 19.2 57.6 32 89.6 32z m-268.8 473.6c-12.8-25.6-44.8-44.8-70.4-57.6-32-6.4-64-6.4-89.6 12.8-12.8 6.4-25.6 19.2-32 32-6.4 12.8-19.2 25.6-19.2 44.8-6.4 12.8-6.4 32 0 44.8 0 12.8 6.4 32 12.8 44.8 12.8 25.6 44.8 44.8 70.4 57.6 32 6.4 64 6.4 89.6-12.8 12.8-6.4 25.6-19.2 32-32 6.4-12.8 19.2-25.6 19.2-44.8 6.4-12.8 6.4-32 0-44.8s0-32-12.8-44.8z m672-57.6c-12.8-6.4-25.6-12.8-44.8-12.8h-44.8c-12.8 6.4-32 12.8-44.8 19.2-12.8 6.4-25.6 19.2-32 32-6.4 12.8-12.8 25.6-12.8 44.8v44.8c6.4 12.8 12.8 32 19.2 44.8 6.4 12.8 19.2 25.6 32 32 12.8 6.4 25.6 12.8 44.8 12.8h44.8c12.8-6.4 32-12.8 44.8-19.2s25.6-19.2 32-32c6.4-12.8 12.8-25.6 12.8-44.8v-44.8c-6.4-12.8-12.8-32-19.2-44.8-6.4-12.8-19.2-25.6-32-32z m-224-435.2c64 32 121.6 89.6 160 153.6 38.4 64 51.2 140.8 51.2 217.6 0 19.2 12.8 38.4 32 38.4s38.4-12.8 38.4-32c6.4-96-19.2-192-70.4-275.2-44.8-70.4-108.8-128-179.2-166.4-6.4 0-6.4-6.4-12.8-6.4h-12.8c-6.4 0-6.4 6.4-12.8 6.4s-6.4 6.4-6.4 12.8-6.4 6.4-6.4 12.8V192c0 6.4 6.4 12.8 6.4 12.8 6.4 6.4 6.4 12.8 12.8 12.8zM108.8 620.8s6.4 0 0 0c12.8 0 19.2-6.4 25.6-12.8 6.4-6.4 12.8-19.2 6.4-25.6 0-70.4 19.2-147.2 57.6-211.2 38.4-64 96-121.6 160-153.6 6.4-6.4 12.8-12.8 19.2-25.6v-25.6c0-6.4-6.4-6.4-6.4-12.8-6.4 0-6.4-6.4-12.8-6.4h-25.6C249.6 192 185.6 249.6 140.8 320c-51.2 76.8-70.4 172.8-64 268.8 0 19.2 12.8 32 32 32z m633.6 268.8c-64 38.4-134.4 57.6-204.8 57.6-76.8 0-147.2-19.2-211.2-57.6-6.4 0-6.4-6.4-12.8-6.4h-12.8c-6.4 0-6.4 0-12.8 6.4-6.4 0-6.4 6.4-12.8 12.8s-6.4 6.4-6.4 12.8v12.8c0 6.4 0 6.4 6.4 12.8 0 6.4 6.4 6.4 12.8 12.8C364.8 998.4 448 1024 537.6 1024s172.8-25.6 243.2-70.4c6.4 0 6.4-6.4 12.8-12.8 0-6.4 6.4-6.4 6.4-12.8v-12.8c0-6.4 0-6.4-6.4-12.8 0-6.4-6.4-6.4-12.8-12.8-6.4 0-6.4-6.4-12.8-6.4h-12.8c-6.4 6.4-6.4 6.4-12.8 6.4z" fill="#ffffff" p-id="1358"></path></svg>