<?xml version="1.0" standalone="no"?><!DOCTYPE svg PUBLIC "-//W3C//DTD SVG 1.1//EN" "http://www.w3.org/Graphics/SVG/1.1/DTD/svg11.dtd"><svg t="1744095611002" class="icon" viewBox="0 0 1024 1024" version="1.1" xmlns="http://www.w3.org/2000/svg" p-id="1767" xmlns:xlink="http://www.w3.org/1999/xlink" width="200" height="200"><path d="M512 135a375.72 375.72 0 1 1-146.73 29.61A374.51 374.51 0 0 1 512 135m0-48C277.28 87 87 277.28 87 512s190.28 425 425 425 425-190.28 425-425S746.72 87 512 87z" p-id="1768" fill="#ffffff"></path><path d="M626.15 366.49h-228.3a24 24 0 0 1 0-48h228.3a24 24 0 0 1 0 48zM512 733.13a24 24 0 0 1-24-24V436.84a24 24 0 1 1 48 0v272.29a24 24 0 0 1-24 24z" p-id="1769" fill="#ffffff"></path><path d="M610.2 534.1L512 435.9" p-id="1770" fill="#ffffff"></path><path d="M610.2 558.1a23.9 23.9 0 0 1-17-7L495 452.87a24 24 0 1 1 34-33.94l98.2 98.2a24 24 0 0 1-17 41z" p-id="1771" fill="#ffffff"></path><path d="M512 218a293 293 0 1 1-114.43 23.09A292.17 292.17 0 0 1 512 218m0-36c-182.25 0-330 147.75-330 330s147.75 330 330 330 330-147.75 330-330-147.75-330-330-330z" p-id="1772" fill="#ffffff"></path><path d="M411.87 534.1l98.2-98.2" p-id="1773" fill="#ffffff"></path><path d="M411.87 558.1a24 24 0 0 1-17-41l98.2-98.2A24 24 0 1 1 527 452.87l-98.2 98.2a23.9 23.9 0 0 1-16.93 7.03z" p-id="1774" fill="#ffffff"></path></svg>