<?xml version="1.0" standalone="no"?><!DOCTYPE svg PUBLIC "-//W3C//DTD SVG 1.1//EN" "http://www.w3.org/Graphics/SVG/1.1/DTD/svg11.dtd"><svg t="1744095894990" class="icon" viewBox="0 0 1024 1024" version="1.1" xmlns="http://www.w3.org/2000/svg" p-id="2756" xmlns:xlink="http://www.w3.org/1999/xlink" width="200" height="200"><path d="M896 160H128c-17.67 0-32 14.33-32 32v640c0 17.67 14.33 32 32 32h768c17.67 0 32-14.33 32-32V192c0-17.67-14.33-32-32-32z m-32 64v472.01l-227.2-170.4c-16.97-12.72-40.62-12.72-57.59 0l-98.58 73.92L349.2 494.39c-16.47-13.19-39.27-14.19-56.81-2.39L160 581.02V224h704zM160 800V658.16l158.36-106.48 161.02 128.8L608 584l256 192v24H160z" fill="#ffffff" p-id="2757"></path><path d="M704 480c52.94 0 96-43.06 96-96s-43.06-96-96-96-96 43.06-96 96 43.06 96 96 96z m0-128c17.64 0 32 14.36 32 32s-14.36 32-32 32-32-14.36-32-32 14.36-32 32-32z" fill="#ffffff" p-id="2758"></path></svg>