<?xml version="1.0" standalone="no"?><!DOCTYPE svg PUBLIC "-//W3C//DTD SVG 1.1//EN" "http://www.w3.org/Graphics/SVG/1.1/DTD/svg11.dtd"><svg t="1744095706957" class="icon" viewBox="0 0 1024 1024" version="1.1" xmlns="http://www.w3.org/2000/svg" p-id="1976" xmlns:xlink="http://www.w3.org/1999/xlink" width="200" height="200"><path d="M64 512c0-247.039484 200.960516-448 448-448S960 264.960516 960 512 759.039484 960 512 960 64 759.039484 64 512zM896.00000001 512c0-211.74444299-172.255557-384-384.00000001-384.00000001s-384 172.255557-384.00000001 384.00000001 172.255557 384 384.00000001 384.00000001S896 723.744443 896.00000001 512z" fill="#ffffff" p-id="1977"></path><path d="M565.632361 694.463217l160.25545-158.495686c9.471415-9.34412 11.84012901-23.167639 7.135385-34.784142-0.287273-0.736245-0.99255501-1.312512-1.343475-2.016073-1.47249-2.975944-3.072275-5.951888-5.5356-8.447897-0.032684-0.032684-0.063647-0.032684-0.096331-0.063647-0.032684-0.032684-0.032684-0.063647-0.063647-0.096331l-158.911974-159.35922601c-12.480043-12.512727-32.735385-12.54369-45.248112-0.06364699-6.271845 6.239161-9.407768 14.46343201-9.407768 22.65674 0 8.160624 3.10323901 16.352211 9.34412001 22.591372l103.29622399 103.616181-305.056632 0c-17.695686 0-31.99914 14.336138-31.99914 32.00086s14.303454 32.00086 31.99914 32.00086L626.752748 544.00258l-106.112189 104.959656c-6.335493 6.239161-9.504099 14.496116-9.504099 22.75135101 0 8.12794 3.072275 16.25588 9.247789 22.49676099C532.800645 706.783282 553.055987 706.912297 565.632361 694.463217z" fill="#ffffff" p-id="1978"></path></svg>