<?xml version="1.0" standalone="no"?><!DOCTYPE svg PUBLIC "-//W3C//DTD SVG 1.1//EN" "http://www.w3.org/Graphics/SVG/1.1/DTD/svg11.dtd"><svg t="1748226681668" class="icon" viewBox="0 0 1024 1024" version="1.1" xmlns="http://www.w3.org/2000/svg" p-id="1609" xmlns:xlink="http://www.w3.org/1999/xlink" width="48" height="48"><path d="M508.586667 977.92c-237.226667 0-477.866667-56.32-477.866667-163.84 0-35.84 27.306667-85.333333 151.893333-122.88 15.36-5.12 32.426667 3.413333 37.546667 20.48 5.12 15.36-3.413333 32.426667-20.48 37.546667-87.04 25.6-109.226667 54.613333-109.226667 66.56 0 35.84 146.773333 104.106667 418.133334 104.106666s418.133333-68.266667 418.133333-104.106666c0-11.946667-22.186667-40.96-109.226667-66.56-15.36-5.12-25.6-22.186667-20.48-37.546667 5.12-15.36 22.186667-23.893333 37.546667-20.48 126.293333 37.546667 151.893333 88.746667 151.893333 122.88 0 107.52-240.64 163.84-477.866666 163.84z" fill="#ffffff" p-id="1610"></path><path d="M508.586667 798.72c-5.12 0-11.946667-1.706667-17.066667-5.12-11.946667-6.826667-303.786667-201.386667-303.786667-433.493333C187.733333 187.733333 331.093333 46.08 508.586667 46.08S829.44 187.733333 829.44 360.106667c0 233.813333-291.84 426.666667-305.493333 435.2-3.413333 1.706667-8.533333 3.413333-15.36 3.413333z m0-692.906667c-143.36 0-261.12 114.346667-261.12 254.293334 0 172.373333 201.386667 331.093333 261.12 373.76 59.733333-42.666667 261.12-201.386667 261.12-373.76 0-141.653333-116.053333-254.293333-261.12-254.293334z" fill="#ffffff" p-id="1611"></path><path d="M508.586667 75.093333c-160.426667 0-291.84 128-291.84 283.306667 0 220.16 291.84 409.6 291.84 409.6s291.84-191.146667 291.84-409.6c0-155.306667-131.413333-283.306667-291.84-283.306667z m0 433.493334c-78.506667 0-141.653333-63.146667-141.653334-141.653334s63.146667-141.653333 141.653334-141.653333 141.653333 63.146667 141.653333 141.653333-63.146667 141.653333-141.653333 141.653334z" fill="#ffffff" p-id="1612"></path><path d="M508.586667 366.933333m-59.733334 0a59.733333 59.733333 0 1 0 119.466667 0 59.733333 59.733333 0 1 0-119.466667 0Z" fill="#ffffff" p-id="1613"></path></svg>