<?xml version="1.0" standalone="no"?><!DOCTYPE svg PUBLIC "-//W3C//DTD SVG 1.1//EN" "http://www.w3.org/Graphics/SVG/1.1/DTD/svg11.dtd"><svg t="1748226519546" class="icon" viewBox="0 0 1024 1024" version="1.1" xmlns="http://www.w3.org/2000/svg" p-id="1176" width="48" height="48" xmlns:xlink="http://www.w3.org/1999/xlink"><path d="M375.828644 271.679609c0-86.052888-70.316485-155.87921-155.87921-155.87921-86.052888 0-155.87921 70.317509-155.87921 155.87921 0 41.797965 16.718777 80.152505 43.76476 108.181885-7.375991 30.487362-11.30958 62.450331-11.30958 95.887884 0 148.503219 78.18571 278.813077 195.709357 351.58959l31.471782-128.343063c-63.924915-53.598732-104.247272-133.751237-104.247272-223.246527 0-16.22759 1.474584-32.455179 3.932565-47.698349 83.593883-1.474584 152.436808-70.317509 152.436808-156.37142z m133.75226-87.036285c54.090942 0 104.738459 14.751982 148.011009 40.321334-6.883781 17.702174-10.32516 36.387745-10.32516 56.549947 0 86.053911 70.316485 155.87921 155.87921 155.87921 85.560678 0 155.87921-70.318532 155.87921-156.37142S889.198851 125.143185 803.145963 125.143185c-20.161179 0-39.33896 3.933589-57.532321 10.818393-66.87613-46.714951-148.504242-73.759911-236.523925-73.759911-59.500139 0-116.050086 12.785188-167.189813 35.404348l71.301929 103.756085c30.486338-11.310603 62.940494-16.718777 96.379071-16.718776z m291.106054 304.383452c-4.426823 106.21509-66.38392 197.677175-154.895812 244.391103-25.570375-50.64854-78.67792-85.070514-139.161457-85.070515-86.053911 0-155.87921 70.318532-155.87921 155.880234 0 86.052888 70.318532 155.87921 155.87921 155.87921 64.908312 0 119.982652-39.33896 144.078443-95.396697 159.321612-57.532321 272.912693-210.461339 272.912693-388.960733 0-9.343809-0.49221-18.194384-0.983397-27.53717l-121.95047 40.814568z" p-id="1177" fill="#ffffff"></path></svg>