<?xml version="1.0" standalone="no"?><!DOCTYPE svg PUBLIC "-//W3C//DTD SVG 1.1//EN" "http://www.w3.org/Graphics/SVG/1.1/DTD/svg11.dtd"><svg t="1748226782220" class="icon" viewBox="0 0 1024 1024" version="1.1" xmlns="http://www.w3.org/2000/svg" p-id="2411" xmlns:xlink="http://www.w3.org/1999/xlink" width="48" height="48"><path d="M832 288H192V224h192v-16c0-39.776 14.08-73.696 42.176-101.824C454.304 78.048 488.256 64 528 64c39.776 0 73.696 14.08 101.824 42.176C657.952 134.304 672 168.256 672 208V224h160v64z m-247.424-136.576A77.088 77.088 0 0 0 528 128c-22.08 0-40.96 7.808-56.576 23.424A77.088 77.088 0 0 0 448 208V224h160v-16c0-22.08-7.808-40.96-23.424-56.576z m-257.952 203.872a35.296 35.296 0 1 1-70.624 0 35.296 35.296 0 0 1 70.624 0zM589.12 320l-248.704 58.88c11.84-31.776 8.8-37.536-4.608-58.88h253.312z m181.44 26.24a28.768 28.768 0 0 1-20.352 38.112l-0.96 0.224-437.536 98.08a35.648 35.648 0 0 1-40.704-22.464 28.768 28.768 0 0 1 20.384-38.112l0.96-0.224 437.504-98.08a35.648 35.648 0 0 1 40.704 22.464z m0 110.72a28.768 28.768 0 0 1-20.352 38.08l-0.96 0.224-437.536 98.08a35.648 35.648 0 0 1-40.704-22.496 28.768 28.768 0 0 1 20.384-38.08l0.96-0.224 437.504-98.112a35.648 35.648 0 0 1 40.704 22.496z m0 108.992a28.768 28.768 0 0 1-20.352 38.112l-0.96 0.224L311.744 702.4a35.648 35.648 0 0 1-40.704-22.464 28.768 28.768 0 0 1 20.384-38.112l0.96-0.224 437.504-98.08a35.648 35.648 0 0 1 40.704 22.464z m0 109.856a28.768 28.768 0 0 1-20.352 38.08l-0.96 0.256-437.536 98.08a35.648 35.648 0 0 1-40.704-22.496 28.768 28.768 0 0 1 20.384-38.08l0.96-0.256 437.504-98.08a35.648 35.648 0 0 1 40.704 22.496z m-73.216 120.896a35.296 35.296 0 1 1 70.624 0 35.296 35.296 0 0 1-70.624 0zM434.88 832l248.704-58.88c-11.84 31.776-8.8 37.536 4.608 58.88H434.88zM192 864h640v64H192v-64z" p-id="2412" fill="#8a8a8a"></path></svg>