<?xml version="1.0" standalone="no"?><!DOCTYPE svg PUBLIC "-//W3C//DTD SVG 1.1//EN" "http://www.w3.org/Graphics/SVG/1.1/DTD/svg11.dtd"><svg t="1748226802981" class="icon" viewBox="0 0 1024 1024" version="1.1" xmlns="http://www.w3.org/2000/svg" p-id="2660" xmlns:xlink="http://www.w3.org/1999/xlink" width="48" height="48"><path d="M189.12824888 404.1568711a137.11587556 137.11587556 0 0 0 137.77123558-136.31487997A137.04305778 137.04305778 0 0 0 189.12824888 131.5271111a137.04305778 137.04305778 0 0 0-137.84405332 136.31488003 137.11587556 137.11587556 0 0 0 137.84405334 136.31488z m2e-8-227.26428443c50.68117333 0 91.7504 40.70513779 91.7504 90.94940446 0 50.1714489-41.06922667 90.87658667-91.7504 90.87658664a91.38631113 91.38631113 0 0 1-91.89603555-90.87658667c0-50.24426667 41.21486222-90.94940446 91.89603555-90.94940443z" fill="#ffffff" p-id="2661"></path><path d="M143.2530489 267.8419911a45.8752 45.36547556 0 1 0 91.7504 3e-8 45.8752 45.36547556 0 1 0-91.7504 0zM725.50400001 828.17479111H571.71285335L326.89948444 404.1568711c-67.50208001 72.0896-133.25653333 69.61379555-168.42751999 60.58439113-35.09816889-8.95658668-76.45866667-45.43829333-76.45866667-45.43829333l244.95900444 408.87182221H173.18115556a60.58439111 60.58439111 0 0 0-60.58439111 60.58439111v60.51157334c0 33.49617778 27.16103113 60.58439111 60.58439111 60.58439112H725.50400001a60.58439111 60.58439111 0 0 0 60.73002665-60.58439112v-60.51157334a60.58439111 60.58439111 0 0 0-60.73002667-60.58439111z m269.64423111-514.1663289a30.58346667 30.58346667 0 0 0-42.37994667-8.00995553l-145.63555556 98.15836445-97.43018667-114.1054578v-84.17735111l93.57084446-109.44512001 146.50936886 98.52245334c13.76256001 9.32067555 32.84081779 5.82542222 42.52558223-8.00995555a30.14656 30.14656 0 0 0-8.22840888-42.08867555L806.84145778 25.57724445a30.94755556 30.94755556 0 0 0-42.52558222 7.93713778 29.12711111 29.12711111 0 0 0-4.66033778 20.09770664l-92.55139557 108.28003558H612.27235556a40.55950223 40.55950223 0 0 0-40.55950223 40.41386668v-10.19448892H372.84750222v1.60199111c9.46631111 19.07825778 15.21891556 45.21984001 15.21891558 74.12849778 0 28.83584-5.82542222 55.05024-15.21891558 74.12849777v1.60199112h198.86535113v-10.19448889c0 22.28224 18.20444445 40.48668445 40.55950221 40.48668444h57.01632001a40.26823113 40.26823113 0 0 0 24.75804444-8.73813333L763.73333334 446.68245332a29.12711111 29.12711111 0 0 0 4.80597333 19.95207112 30.65628446 30.65628446 0 0 0 42.37994667 7.93713778l176.07338666-118.69297777a29.92810668 29.92810668 0 0 0 8.15559112-41.87022224z" fill="#ffffff" p-id="2662"></path></svg>