<?xml version="1.0" standalone="no"?><!DOCTYPE svg PUBLIC "-//W3C//DTD SVG 1.1//EN" "http://www.w3.org/Graphics/SVG/1.1/DTD/svg11.dtd"><svg t="1748226720102" class="icon" viewBox="0 0 1024 1024" version="1.1" xmlns="http://www.w3.org/2000/svg" p-id="1911" xmlns:xlink="http://www.w3.org/1999/xlink" width="48" height="48"><path d="M128 512h768v384H128z" fill="#ffffff" opacity=".16" p-id="1912"></path><path d="M960 480c19.2 0 32 12.8 32 32 0 16-12.8 28.8-28.8 32H64c-19.2 0-32-12.8-32-32 0-16 12.8-28.8 28.8-32H960zM320 96c19.2 0 32 12.8 32 32 0 16-12.8 28.8-28.8 32H192c-16 0-28.8 12.8-32 28.8V320c0 19.2-12.8 32-32 32-16 0-28.8-12.8-32-28.8V192c0-51.2 38.4-92.8 89.6-96H320z m512 0c51.2 0 92.8 38.4 96 89.6V320c0 19.2-12.8 32-32 32-16 0-28.8-12.8-32-28.8V192c0-16-12.8-28.8-28.8-32H704c-19.2 0-32-12.8-32-32 0-16 12.8-28.8 28.8-32H832zM320 928c19.2 0 32-12.8 32-32 0-16-12.8-28.8-28.8-32H192c-16 0-28.8-12.8-32-28.8V704c0-19.2-12.8-32-32-32-16 0-28.8 12.8-32 28.8V832c0 51.2 38.4 92.8 89.6 96H320z m512 0c51.2 0 92.8-38.4 96-89.6V704c0-19.2-12.8-32-32-32-16 0-28.8 12.8-32 28.8V832c0 16-12.8 28.8-28.8 32H704c-19.2 0-32 12.8-32 32 0 16 12.8 28.8 28.8 32H832z" fill="#ffffff" p-id="1913"></path></svg>