<?xml version="1.0" standalone="no"?><!DOCTYPE svg PUBLIC "-//W3C//DTD SVG 1.1//EN" "http://www.w3.org/Graphics/SVG/1.1/DTD/svg11.dtd"><svg t="1748226752957" class="icon" viewBox="0 0 1024 1024" version="1.1" xmlns="http://www.w3.org/2000/svg" p-id="2161" xmlns:xlink="http://www.w3.org/1999/xlink" width="48" height="48"><path d="M204.8 751.908571v102.253715c0 14.336 8.704 25.6 19.894857 25.6h46.226286c67.218286 0 123.172571-39.936 169.252571-100.717715 47.323429-60.708571 85.869714-142.189714 124.416-220.452571 31.085714-63.926857 62.244571-124.635429 94.573715-171.008 31.085714-47.908571 62.244571-76.653714 99.547428-76.653714h37.522286v116.589714c0 36.790857 19.894857 43.154286 43.593143 19.163429l172.982857-185.270858c14.921143-16.091429 14.921143-46.372571 0-62.317714L839.826286 15.36c-23.698286-25.6-43.593143-19.163429-43.593143 19.163429v122.953142h-37.522286c-68.461714 0-121.929143 38.4-169.252571 100.717715-46.006857 60.708571-88.356571 142.116571-125.659429 218.843428-32.329143 65.462857-62.171429 127.780571-94.573714 174.08-31.085714 46.372571-62.171429 75.117714-98.304 75.117715h-46.226286c-11.190857 0-19.894857 11.190857-19.894857 25.6v0.073142z m0-570.368V283.794286c0 14.336 8.704 25.6 19.894857 25.6h46.226286c55.954286 0 100.790857 70.217143 149.357714 161.28 1.170286-4.827429 2.486857-7.972571 3.657143-11.190857 1.316571-1.609143 5.046857-4.827429 6.290286-7.972572 18.651429-39.936 39.789714-78.262857 59.684571-119.808-29.842286-49.590857-58.514286-94.354286-95.817143-124.635428-36.059429-31.963429-75.849143-49.590857-123.172571-49.590858h-46.226286c-13.677714 0-19.894857 8.045714-19.894857 24.064z m591.433143 541.622858h-37.522286c-54.710857 0-102.034286-68.754286-149.284571-158.208a94.72 94.72 0 0 0-4.973715 11.190857c-2.56 3.218286-3.803429 6.363429-6.217142 11.190857-8.777143 19.163429-19.968 39.936-28.672 59.099428-9.947429 17.554286-19.894857 38.326857-28.598858 55.954286 28.598857 49.517714 58.514286 92.672 94.573715 122.953143 34.816 31.963429 75.922286 52.736 123.172571 52.736h37.522286v111.908571c0 36.717714 19.894857 44.617143 43.593143 19.090286l172.982857-186.88a46.811429 46.811429 0 0 0 0-60.708571l-172.982857-183.734857c-23.698286-23.990857-43.593143-19.163429-43.593143 19.163428v126.244572z" fill="#ffffff" p-id="2162"></path><path d="M292.571429 219.428571a146.285714 146.285714 0 1 1-292.571429 0 146.285714 146.285714 0 0 1 292.571429 0zM292.571429 804.571429a146.285714 146.285714 0 1 1-292.571429 0 146.285714 146.285714 0 0 1 292.571429 0z" fill="#ffffff" p-id="2163"></path></svg>