<?xml version="1.0" standalone="no"?><!DOCTYPE svg PUBLIC "-//W3C//DTD SVG 1.1//EN" "http://www.w3.org/Graphics/SVG/1.1/DTD/svg11.dtd"><svg t="1745974047107" class="icon" viewBox="0 0 1024 1024" version="1.1" xmlns="http://www.w3.org/2000/svg" p-id="2192" xmlns:xlink="http://www.w3.org/1999/xlink" width="20" height="20"><path d="M829.809778 113.777778H190.151111A76.373333 76.373333 0 0 0 113.777778 190.151111v496.455111h792.419555V190.151111A76.373333 76.373333 0 0 0 829.809778 113.777778zM809.528889 415.843556c0 15.786667-12.8 28.615111-28.586667 28.643555h-91.022222a10.353778 10.353778 0 0 1-9.415111-6.030222l-8.035556-17.393778a9.543111 9.543111 0 0 0-17.066666-0.512l-84.650667 157.866667a19.100444 19.100444 0 0 1-33.479111 0.312889L402.773333 338.830222a9.543111 9.543111 0 0 0-17.251555 1.28l-34.972445 92.060445a19.100444 19.100444 0 0 1-17.848889 12.316444H239.075556a28.643556 28.643556 0 1 1 0-57.287111h54.044444c7.936 0 15.032889-4.906667 17.848889-12.316444l57.187555-150.613334a19.100444 19.100444 0 0 1 34.503112-2.574222l141.980444 253.070222a9.543111 9.543111 0 0 0 16.739556-0.156444l88.860444-165.575111a19.100444 19.100444 0 0 1 34.133333 1.024l30.464 66.033777c3.128889 6.769778 9.884444 11.093333 17.336889 11.107556h48.768c15.815111 0 28.643556 12.828444 28.643556 28.643556h-0.056889zM113.777778 719.274667v114.574222A76.373333 76.373333 0 0 0 190.151111 910.222222h639.658667a76.373333 76.373333 0 0 0 76.373333-76.373333v-114.574222H113.777778zM573.297778 810.666667a28.728889 28.728889 0 0 1-28.643556 28.643555H239.075556a28.643556 28.643556 0 1 1 0-57.287111h305.521777A28.728889 28.728889 0 0 1 573.297778 810.666667z m236.231111 0a28.728889 28.728889 0 0 1-28.586667 28.615111h-114.616889a28.643556 28.643556 0 1 1 0-57.287111h114.616889A28.728889 28.728889 0 0 1 809.528889 810.666667z" fill="#ffffff" p-id="2193"></path></svg>