<?xml version="1.0" standalone="no"?><!DOCTYPE svg PUBLIC "-//W3C//DTD SVG 1.1//EN" "http://www.w3.org/Graphics/SVG/1.1/DTD/svg11.dtd"><svg t="1741335018147" class="icon" viewBox="0 0 1024 1024" version="1.1" xmlns="http://www.w3.org/2000/svg" p-id="1088" xmlns:xlink="http://www.w3.org/1999/xlink" width="200" height="200"><path d="M520.704 0l9.1648 0.4608c73.0624 1.7408 132.4544 64.9216 132.4544 139.264V338.432h271.7184a68.1984 68.1984 0 0 1 67.9936 67.8912l0.0512 74.24a68.3008 68.3008 0 0 1-62.8224 67.8912l8.4992 59.4944a34.304 34.304 0 0 1-28.672 39.3728h-5.12a33.28 33.28 0 0 1-33.9968-28.8768l-10.1888-69.632H181.76L123.904 956.0576h805.0176l-18.6368-130.7648a34.304 34.304 0 0 1 28.8256-39.1168 35.6864 35.6864 0 0 1 39.0656 28.928l23.808 169.8816a31.3344 31.3344 0 0 1-8.4992 27.136 36.352 36.352 0 0 1-25.4976 11.8784H85.6064a36.352 36.352 0 0 1-25.4464-11.8784 31.3344 31.3344 0 0 1-8.4992-27.136l62.8224-436.5312a68.3008 68.3008 0 0 1-63.1808-67.8912V406.1184a68.1984 68.1984 0 0 1 67.9424-67.8912h271.5648V134.6048c0.1024-36.352 14.7968-71.2192 40.7552-96.768a121.088 121.088 0 0 1 98.304-37.376zM314.88 619.5712a33.4848 33.4848 0 0 1 45.2608 36.352l-33.9968 203.5712a34.56 34.56 0 0 1-33.9456 28.8768h-5.0688a34.4064 34.4064 0 0 1-27.4432-39.3216l34.2528-203.7248c1.536-9.728 7.68-18.5344 16.384-23.552z m221.44-1.3312a33.536 33.536 0 0 1 45.568 37.632l-33.9968 203.6224a34.6112 34.6112 0 0 1-33.9968 28.8768h-5.12a34.56 34.56 0 0 1-27.136-39.4752l33.9456-203.5712a33.5872 33.5872 0 0 1 16.0768-24.7296z m227.0208 1.024a33.4848 33.4848 0 0 1 45.2608 36.2496l-33.9968 203.6224a34.56 34.56 0 0 1-33.9968 28.8768h-5.0176a34.4064 34.4064 0 0 1-27.1872-39.1168l33.9968-203.52a33.4848 33.4848 0 0 1 20.9408-26.112z" fill="#bfbfbf" p-id="1089"></path></svg>