<?xml version="1.0" standalone="no"?><!DOCTYPE svg PUBLIC "-//W3C//DTD SVG 1.1//EN" "http://www.w3.org/Graphics/SVG/1.1/DTD/svg11.dtd"><svg t="1741335140556" class="icon" viewBox="0 0 1024 1024" version="1.1" xmlns="http://www.w3.org/2000/svg" p-id="1954" xmlns:xlink="http://www.w3.org/1999/xlink" width="200" height="200"><path d="M730.896 49C832.574 49 915 131.426 915 233.104v517.792C915 852.574 832.574 935 730.896 935H213.104C111.426 935 29 852.574 29 750.896V233.104C29 131.426 111.426 49 213.104 49h517.792zM282.143 516.164c-53.381 0-96.655 43.273-96.655 96.654 0 53.381 43.274 96.655 96.655 96.655 53.38 0 96.654-43.274 96.654-96.655 0-53.38-43.273-96.654-96.654-96.654z m0 46.026c27.961 0 50.628 22.667 50.628 50.628 0 27.962-22.667 50.629-50.628 50.629-27.962 0-50.629-22.667-50.629-50.629 0-27.961 22.667-50.628 50.629-50.628zM770.018 582.9h-266.95c-16.523 0-29.917 13.395-29.917 29.917 0 16.523 13.394 29.917 29.917 29.917h266.95c16.523 0 29.917-13.394 29.917-29.917 0-16.522-13.394-29.917-29.917-29.917zM395.23 260.114c-8.585-9.052-22.882-9.43-31.934-0.845l-94.88 89.987-48.192-48.192c-8.937-8.936-23.426-8.936-32.362 0-8.937 8.937-8.937 23.426 0 32.362l59.546 59.546a22.966 22.966 0 0 0 3.245 2.7 23.701 23.701 0 0 0 1.25 1.43c8.584 9.051 22.882 9.43 31.934 0.845l110.51-104.812c9.25-8.774 9.76-23.344 1.143-32.742a22.58 22.58 0 0 0-0.26-0.279z m374.788 39.728h-266.95c-16.523 0-29.917 13.394-29.917 29.916 0 16.523 13.394 29.917 29.917 29.917h266.95c16.523 0 29.917-13.394 29.917-29.917 0-16.522-13.394-29.916-29.917-29.916z" fill="#bfbfbf" p-id="1955"></path></svg>