<?xml version="1.0" standalone="no"?><!DOCTYPE svg PUBLIC "-//W3C//DTD SVG 1.1//EN" "http://www.w3.org/Graphics/SVG/1.1/DTD/svg11.dtd"><svg t="1741335114433" class="icon" viewBox="0 0 1024 1024" version="1.1" xmlns="http://www.w3.org/2000/svg" p-id="1705" xmlns:xlink="http://www.w3.org/1999/xlink" width="200" height="200"><path d="M791.8592 215.51104H231.68512c-29.75232 0-52.50048 22.7584-52.50048 52.51584v488.39168c0 28.01152 22.75328 52.52608 52.50048 52.52608H791.8592c28.01152 0 52.5312-24.51456 52.5312-52.52608V268.032c0-28.01152-22.76352-52.52096-52.5312-52.52096zM350.73024 304.78848c29.76768 0 56.01792 24.50944 56.01792 56.0128 0 31.50848-24.50432 56.0128-56.01792 56.0128-29.75232 0-56.0128-24.50432-56.0128-56.0128 0-31.50336 26.26048-56.0128 56.0128-56.0128z m-40.25344 425.37984c-5.26336 0-10.50624-1.75616-15.75936-5.25312-10.50624-8.75008-10.50624-21.00736-1.74592-31.50336l108.53376-152.2944c8.74496-8.76032 21.01248-10.50624 31.50848-3.5072l94.53056 66.52416 169.80992-182.06208c8.75008-8.75008 50.74944-54.26688 75.264-3.5072v309.84704c-0.00512 1.75616-462.14144 1.75616-462.14144 1.75616z m0 0M972.69248 971.85792h-237.98272a26.8032 26.8032 0 0 1-23.22944-13.4144 26.81344 26.81344 0 0 1 23.22944-40.22272h209.50528v-184.36096a26.81344 26.81344 0 1 1 53.62176 0v211.17952c1.66912 15.08864-10.05568 26.81856-25.14432 26.81856z m-0.8448-646.51776a26.4704 26.4704 0 0 1-26.80832-26.82368V105.7792h-211.1744a26.53184 26.53184 0 0 1-19.07712-7.74656 26.48576 26.48576 0 0 1-7.74656-19.072 26.46528 26.46528 0 0 1 26.82368-26.81856h236.30848c16.76288 0 28.48768 11.73504 28.48768 26.81344v219.56096a26.48576 26.48576 0 0 1-26.81344 26.82368zM268.34944 105.7792H80.64v192.7424a26.47552 26.47552 0 0 1-26.82368 26.82368 26.46528 26.46528 0 0 1-26.81344-26.82368V78.96064c-1.67424-15.0784 10.0608-26.81344 25.1392-26.81344h216.20736a26.4704 26.4704 0 0 1 26.81344 26.81856c1.68448 15.08352-11.73504 26.81344-26.81344 26.81344zM52.14208 707.04128a26.4704 26.4704 0 0 1 26.81856 26.82368v184.36096h189.3888a26.80832 26.80832 0 0 1 23.22432 40.22272 26.81344 26.81344 0 0 1-23.22432 13.4144H52.14208a26.42432 26.42432 0 0 1-19.06176-7.7568 26.43968 26.43968 0 0 1-7.75168-19.06688v-211.17952a26.496 26.496 0 0 1 26.81344-26.81856z m-13.40416 237.99808" p-id="1706" fill="#bfbfbf"></path></svg>