<?xml version="1.0" standalone="no"?><!DOCTYPE svg PUBLIC "-//W3C//DTD SVG 1.1//EN" "http://www.w3.org/Graphics/SVG/1.1/DTD/svg11.dtd"><svg t="1745974071697" class="icon" viewBox="0 0 1024 1024" version="1.1" xmlns="http://www.w3.org/2000/svg" p-id="2399" xmlns:xlink="http://www.w3.org/1999/xlink" width="20" height="20"><path d="M512 64C264.8 64 64 264.8 64 512s200.8 448 448 448 448-200.8 448-448S759.2 64 512 64z m244.8 232c30.4-17.6 69.6-7.2 87.2 24s7.2 69.6-24 87.2c-30.4 17.6-69.6 7.2-87.2-23.2-16.8-30.4-6.4-69.6 24-88 0 0.8 0 0 0 0zM512 128c35.2 0 64 28.8 64 64s-28.8 64-64 64-64-28.8-64-64 28.8-64 64-64zM267.2 728c-30.4 17.6-69.6 7.2-87.2-24s-7.2-69.6 24-87.2c30.4-17.6 69.6-7.2 87.2 23.2 16.8 30.4 6.4 69.6-24 88 0-0.8 0 0 0 0z m23.2-344c-17.6 30.4-56.8 40.8-87.2 23.2-30.4-17.6-40.8-56.8-23.2-87.2 17.6-30.4 56.8-40.8 87.2-23.2 30.4 16.8 40.8 56 23.2 87.2zM512 896c-35.2 0-64-28.8-64-64s28.8-64 64-64 64 28.8 64 64-28.8 64-64 64z m0-192c-106.4 0-192-85.6-192-192s85.6-192 192-192 192 85.6 192 192-85.6 192-192 192z m332.8 0c-17.6 30.4-56.8 40.8-87.2 23.2s-40.8-56.8-23.2-87.2c17.6-30.4 56.8-40.8 87.2-23.2 30.4 16.8 40.8 56 23.2 87.2z" p-id="2400" fill="#ffffff"></path><path d="M512 512m-128 0a128 128 0 1 0 256 0 128 128 0 1 0-256 0Z" p-id="2401" fill="#ffffff"></path></svg>